<mxfile host="app.diagrams.net" agent="Mozilla/5.0 (Windows NT 10.0; Win64; x64) AppleWebKit/537.36 (KHTML, like Gecko) Chrome/131.0.0.0 Safari/537.36" version="26.0.6">
  <diagram name="Page-1" id="LN-fIwgsH304SYWxGdVy">
    <mxGraphModel dx="1194" dy="690" grid="1" gridSize="10" guides="1" tooltips="1" connect="1" arrows="1" fold="1" page="1" pageScale="1" pageWidth="850" pageHeight="1100" math="0" shadow="0">
      <root>
        <mxCell id="0" />
        <mxCell id="1" parent="0" />
        <mxCell id="yvqqZgJYGLmqrpD2Rn-v-1" value="Flowchart 2" style="text;html=1;align=center;verticalAlign=middle;whiteSpace=wrap;rounded=0;labelBackgroundColor=default;textShadow=1;" parent="1" vertex="1">
          <mxGeometry x="100" y="20" width="150" height="30" as="geometry" />
        </mxCell>
        <mxCell id="LhAaURBHIMMjiWh2ycK4-3" value="" style="edgeStyle=orthogonalEdgeStyle;rounded=0;orthogonalLoop=1;jettySize=auto;html=1;" parent="1" source="LhAaURBHIMMjiWh2ycK4-1" target="LhAaURBHIMMjiWh2ycK4-2" edge="1">
          <mxGeometry relative="1" as="geometry" />
        </mxCell>
        <mxCell id="LhAaURBHIMMjiWh2ycK4-1" value="Processing of data Lines" style="ellipse;whiteSpace=wrap;html=1;fillColor=#d5e8d4;strokeColor=#82b366;" parent="1" vertex="1">
          <mxGeometry x="330" y="10" width="120" height="80" as="geometry" />
        </mxCell>
        <mxCell id="LhAaURBHIMMjiWh2ycK4-5" value="" style="edgeStyle=orthogonalEdgeStyle;rounded=0;orthogonalLoop=1;jettySize=auto;html=1;" parent="1" source="LhAaURBHIMMjiWh2ycK4-2" target="LhAaURBHIMMjiWh2ycK4-4" edge="1">
          <mxGeometry relative="1" as="geometry" />
        </mxCell>
        <mxCell id="LhAaURBHIMMjiWh2ycK4-2" value="Data Lines" style="whiteSpace=wrap;html=1;fillColor=#f5f5f5;strokeColor=#666666;fontColor=#333333;" parent="1" vertex="1">
          <mxGeometry x="330" y="120" width="120" height="60" as="geometry" />
        </mxCell>
        <mxCell id="LhAaURBHIMMjiWh2ycK4-7" value="" style="edgeStyle=orthogonalEdgeStyle;rounded=0;orthogonalLoop=1;jettySize=auto;html=1;" parent="1" source="LhAaURBHIMMjiWh2ycK4-4" target="LhAaURBHIMMjiWh2ycK4-6" edge="1">
          <mxGeometry relative="1" as="geometry" />
        </mxCell>
        <mxCell id="LhAaURBHIMMjiWh2ycK4-4" value="Skip headline" style="whiteSpace=wrap;html=1;fillColor=#f5f5f5;strokeColor=#666666;fontColor=#333333;" parent="1" vertex="1">
          <mxGeometry x="330" y="230" width="120" height="60" as="geometry" />
        </mxCell>
        <mxCell id="LhAaURBHIMMjiWh2ycK4-9" value="" style="edgeStyle=orthogonalEdgeStyle;rounded=0;orthogonalLoop=1;jettySize=auto;html=1;" parent="1" source="LhAaURBHIMMjiWh2ycK4-6" target="LhAaURBHIMMjiWh2ycK4-8" edge="1">
          <mxGeometry relative="1" as="geometry" />
        </mxCell>
        <mxCell id="LhAaURBHIMMjiWh2ycK4-6" value="Get data line" style="whiteSpace=wrap;html=1;fillColor=#f5f5f5;strokeColor=#666666;fontColor=#333333;" parent="1" vertex="1">
          <mxGeometry x="330" y="320" width="120" height="60" as="geometry" />
        </mxCell>
        <mxCell id="LhAaURBHIMMjiWh2ycK4-11" value="" style="edgeStyle=orthogonalEdgeStyle;rounded=0;orthogonalLoop=1;jettySize=auto;html=1;" parent="1" source="LhAaURBHIMMjiWh2ycK4-8" target="LhAaURBHIMMjiWh2ycK4-10" edge="1">
          <mxGeometry relative="1" as="geometry" />
        </mxCell>
        <mxCell id="LhAaURBHIMMjiWh2ycK4-8" value="Split into Data Fields" style="whiteSpace=wrap;html=1;fillColor=#f5f5f5;strokeColor=#666666;fontColor=#333333;" parent="1" vertex="1">
          <mxGeometry x="330" y="420" width="120" height="60" as="geometry" />
        </mxCell>
        <mxCell id="LhAaURBHIMMjiWh2ycK4-13" value="" style="edgeStyle=orthogonalEdgeStyle;rounded=0;orthogonalLoop=1;jettySize=auto;html=1;" parent="1" source="LhAaURBHIMMjiWh2ycK4-10" target="LhAaURBHIMMjiWh2ycK4-12" edge="1">
          <mxGeometry relative="1" as="geometry" />
        </mxCell>
        <mxCell id="LhAaURBHIMMjiWh2ycK4-10" value="SalesPerson=DataField[0]&lt;div&gt;Department= DataFied[1]&lt;/div&gt;" style="whiteSpace=wrap;html=1;fillColor=#f5f5f5;strokeColor=#666666;fontColor=#333333;" parent="1" vertex="1">
          <mxGeometry x="270" y="540" width="240" height="60" as="geometry" />
        </mxCell>
        <mxCell id="LhAaURBHIMMjiWh2ycK4-15" value="" style="edgeStyle=orthogonalEdgeStyle;rounded=0;orthogonalLoop=1;jettySize=auto;html=1;" parent="1" source="LhAaURBHIMMjiWh2ycK4-12" target="LhAaURBHIMMjiWh2ycK4-14" edge="1">
          <mxGeometry relative="1" as="geometry" />
        </mxCell>
        <mxCell id="LhAaURBHIMMjiWh2ycK4-12" value="Get data index" style="whiteSpace=wrap;html=1;fillColor=#f5f5f5;strokeColor=#666666;fontColor=#333333;" parent="1" vertex="1">
          <mxGeometry x="290" y="650" width="200" height="40" as="geometry" />
        </mxCell>
        <mxCell id="LhAaURBHIMMjiWh2ycK4-17" value="" style="edgeStyle=orthogonalEdgeStyle;rounded=0;orthogonalLoop=1;jettySize=auto;html=1;" parent="1" source="LhAaURBHIMMjiWh2ycK4-14" target="LhAaURBHIMMjiWh2ycK4-16" edge="1">
          <mxGeometry relative="1" as="geometry" />
        </mxCell>
        <mxCell id="LhAaURBHIMMjiWh2ycK4-14" value="Update data arrays[dataIndex}" style="whiteSpace=wrap;html=1;fillColor=#f5f5f5;strokeColor=#666666;fontColor=#333333;" parent="1" vertex="1">
          <mxGeometry x="290" y="720" width="200" height="40" as="geometry" />
        </mxCell>
        <mxCell id="LhAaURBHIMMjiWh2ycK4-18" style="edgeStyle=orthogonalEdgeStyle;rounded=0;orthogonalLoop=1;jettySize=auto;html=1;" parent="1" edge="1">
          <mxGeometry relative="1" as="geometry">
            <mxPoint x="390" y="300" as="targetPoint" />
            <mxPoint x="330" y="870" as="sourcePoint" />
            <Array as="points">
              <mxPoint x="241" y="870" />
              <mxPoint x="241" y="300" />
            </Array>
          </mxGeometry>
        </mxCell>
        <mxCell id="LhAaURBHIMMjiWh2ycK4-19" value="YES" style="edgeLabel;html=1;align=center;verticalAlign=middle;resizable=0;points=[];" parent="LhAaURBHIMMjiWh2ycK4-18" vertex="1" connectable="0">
          <mxGeometry x="-0.5614" y="-2" relative="1" as="geometry">
            <mxPoint as="offset" />
          </mxGeometry>
        </mxCell>
        <mxCell id="LhAaURBHIMMjiWh2ycK4-16" value="More data arrays?" style="rhombus;whiteSpace=wrap;html=1;fillColor=#fff2cc;strokeColor=#d6b656;" parent="1" vertex="1">
          <mxGeometry x="320" y="800" width="140" height="140" as="geometry" />
        </mxCell>
        <mxCell id="LhAaURBHIMMjiWh2ycK4-20" value="&lt;h1 style=&quot;margin-top: 0px;&quot;&gt;&lt;br&gt;&lt;/h1&gt;&lt;p class=&quot;extension-adhd-reader-p&quot;&gt;.Initialize Constants:&lt;br&gt;o csvFileName = path to the CSV file containing product data.&lt;br&gt;o reportFileName = path to save the summary report.&lt;br&gt;2. Declare Data Arrays:&lt;br&gt;o productIDs[], departments[], productNames[]: store product details.&lt;br&gt;o assemblyTimes[]: store integer values for assembly times.&lt;br&gt;o prices[]: store double values for product prices.&amp;nbsp;&lt;/p&gt;&lt;p class=&quot;extension-adhd-reader-p&quot;&gt;Main Method:&lt;br/&gt;o Call ReadCSVFile() to read all lines from the CSV file into an array&lt;br/&gt;fileLines.&lt;br/&gt;o If fileLines is empty, display an error and terminate.&lt;br/&gt;o Calculate numberProducts = fileLines.Length - 1 (ignoring the header).&lt;br/&gt;o If numberProducts &amp;gt; 0:&lt;br/&gt;▪ Call sizeDataArrays(numberProducts) to initialize arrays with&lt;br/&gt;correct sizes.&lt;br/&gt;▪ Populate arrays by calling PopulateDataArrays(fileLines).&lt;br/&gt;▪ Generate the summary report using GenerateSummaryReport().&lt;br/&gt;o Otherwise, display &quot;No products found.&quot;&lt;br/&gt;4. Function: ReadCSVFile()&lt;br/&gt;o Try to read all lines from csvFileName.&lt;br/&gt;o Return the lines as an array.&lt;br/&gt;o If an error occurs, display the message and return null.&lt;br/&gt;5. Function: sizeDataArrays(size):&lt;br/&gt;o Initialize the arrays productIDs[], departments[], productNames[],&lt;br/&gt;assemblyTimes[], and prices[] with the specified size.&lt;br/&gt;6. Function: PopulateDataArrays(fileLines):&lt;br/&gt;o Loop through fileLines starting from the second line.&lt;br/&gt;o Split each line by &quot;,&quot; to extract:&lt;br/&gt;▪ productID, department, productName, assemblyTime, price.&lt;br/&gt;o Store extracted data into corresponding arrays.&lt;br/&gt;7. Function: GenerateSummaryReport():&lt;br/&gt;o Calculate numberProducts = length of productIDs.&lt;br/&gt;o Compute totalAssemblyTime using CalculateTotalAssemblyTimes().&lt;br/&gt;o Compute averageAssemblyTime = totalAssemblyTime /&lt;br/&gt;numberProducts.&lt;br/&gt;o Find indexQuickest using GetIndexQuickestToAssemble().&lt;br/&gt;o Compute totalPrice using CalculateTotalPrices().&lt;br/&gt;o Compute averagePrice = totalPrice / numberProducts.&lt;br/&gt;o Prepare reportLines[] with summary data:&lt;br/&gt;▪ Number of products.&lt;br/&gt;▪ Total and average assembly time.&lt;br/&gt;▪ Quickest assembly product details.&lt;br/&gt;▪ Total and average product prices.&lt;br/&gt;o Write reportLines to file using WriteReportFile(reportLines).&lt;br/&gt;o Display each line of reportLines on the console.&lt;br/&gt;8. Function: CalculateTotalAssemblyTimes():&lt;br/&gt;o Initialize totalAssemblyTimes = 0.&lt;br/&gt;o Loop through assemblyTimes[], adding each value to totalAssemblyTimes.&lt;br/&gt;o Return totalAssemblyTimes.&lt;br/&gt;9. Function: GetIndexQuickestToAssemble():&lt;br/&gt;o Initialize indexQuickest = 0, quickestTime = assemblyTimes[0].&lt;br/&gt;o Loop through assemblyTimes[], updating quickestTime and&lt;br/&gt;indexQuickest if a smaller value is found.&lt;br/&gt;o Return indexQuickest.&lt;br/&gt;10. Function: CalculateTotalPrices():&lt;br/&gt;o Initialize totalPrices = 0.&lt;br/&gt;o Loop through prices[], adding each value to totalPrices.&lt;br/&gt;o Return totalPrices.&lt;br/&gt;11. Function: WriteReportFile(reportLines):&lt;br/&gt;o Try to write reportLines to reportFileName.&lt;br/&gt;o If successful, display &quot;File created.&quot;&lt;br/&gt;o If an error occurs, display the error message.&lt;/p&gt;" style="text;html=1;whiteSpace=wrap;overflow=hidden;rounded=0;" parent="1" vertex="1">
          <mxGeometry x="290" y="550" width="180" height="90" as="geometry" />
        </mxCell>
        <mxCell id="LhAaURBHIMMjiWh2ycK4-21" value="&lt;h1 style=&quot;margin-top: 0px;&quot;&gt;&lt;br&gt;&lt;/h1&gt;" style="text;html=1;whiteSpace=wrap;overflow=hidden;rounded=0;fontStyle=0" parent="1" vertex="1">
          <mxGeometry x="370" y="360" width="80" height="60" as="geometry" />
        </mxCell>
      </root>
    </mxGraphModel>
  </diagram>
</mxfile>
